<?xml version="1.0" encoding="UTF-8"?>
<svg id="Layer_1" data-name="Layer 1" xmlns="http://www.w3.org/2000/svg" viewBox="0 0 4587.28 3669.82">
  <defs>
    <style>
      .cls-1 {
        fill: #ede5d3;
      }
    </style>
  </defs>
  <polygon class="cls-1" points="611.64 1223.27 611.64 1834.91 1529.09 1834.91 1529.09 2140.73 611.64 3058.18 611.64 1834.91 0 1834.91 0 3669.82 611.64 3669.82 917.46 3669.82 1529.09 3058.18 1529.09 3669.82 2140.73 3669.82 2140.73 1834.91 2140.73 1223.27 611.64 1223.27"/>
  <polygon class="cls-1" points="3975.64 1834.91 3975.64 3058.18 3058.18 2140.73 3058.18 1834.91 3975.64 1834.91 3975.64 1223.27 3058.18 1223.27 3058.18 0 2446.55 0 2446.55 3669.82 3058.18 3669.82 3058.18 3058.18 3669.82 3669.82 3975.64 3669.82 4587.28 3669.82 4587.28 1834.91 3975.64 1834.91"/>
</svg>