<?xml version="1.0" encoding="UTF-8"?>
<svg id="Layer_1" xmlns="http://www.w3.org/2000/svg" version="1.1" viewBox="0 0 5000 5000">
  <!-- Generator: Adobe Illustrator 29.6.1, SVG Export Plug-In . SVG Version: 2.1.1 Build 9)  -->
  <defs>
    <style>
      .st0 {
        fill: #222223;
      }
    </style>
  </defs>
  <polygon class="st0" points="818 1888.36 818 2500 1735.45 2500 1735.45 2805.82 818 3723.27 818 2500 206.36 2500 206.36 4334.91 818 4334.91 1123.82 4334.91 1735.45 3723.27 1735.45 4334.91 2347.09 4334.91 2347.09 2500 2347.09 1888.36 818 1888.36"/>
  <polygon class="st0" points="4182 2500 4182 3723.27 3264.55 2805.82 3264.55 2500 4182 2500 4182 1888.36 3264.55 1888.36 3264.55 665.09 2652.91 665.09 2652.91 4334.91 3264.55 4334.91 3264.55 3723.27 3876.18 4334.91 4182 4334.91 4793.64 4334.91 4793.64 2500 4182 2500"/>
</svg>